<svg xmlns="http://www.w3.org/2000/svg" width="37.194" height="31.964" viewBox="0 0 37.194 31.964"><defs><style>.a{fill:#146cda;}</style></defs><g transform="translate(0 0)"><path class="a" d="M36.612,41.041a2.6,2.6,0,0,0-2.034-.971H6.228l-.253-1.814A2.626,2.626,0,0,0,3.385,36H1.162a1.162,1.162,0,0,0,0,2.325H3.385a.292.292,0,0,1,.288.25L6.81,61.063A2.626,2.626,0,0,0,9.4,63.316h1.26a3.487,3.487,0,1,0,6.574,0h6.211a3.487,3.487,0,1,0,6.574,0h2.525a1.162,1.162,0,1,0,0-2.325H9.4a.292.292,0,0,1-.288-.25l-.289-2.074h22.89A2.63,2.63,0,0,0,34.271,56.6l2.864-13.366a2.6,2.6,0,0,0-.523-2.192ZM15.11,64.479a1.162,1.162,0,1,1-1.162-1.162A1.164,1.164,0,0,1,15.11,64.479Zm12.785,0a1.162,1.162,0,1,1-1.162-1.162A1.164,1.164,0,0,1,27.9,64.479Zm6.967-21.733L32,56.112a.293.293,0,0,1-.285.23H8.5L6.553,42.395H34.578a.29.29,0,0,1,.284.351Z" transform="translate(0 -36.002)"/></g></svg>