<svg xmlns="http://www.w3.org/2000/svg" width="19.738" height="19.695" viewBox="0 0 19.738 19.695"><defs><style>.a{fill:#9b235d;stroke:#9b235d;stroke-width:0.1px;}</style></defs><g transform="translate(0.05 -0.466)"><g transform="translate(0 0.516)"><rect class="a" width="1.968" height="0.656" transform="translate(14.104 13.078)"/><rect class="a" width="1.968" height="0.656" transform="translate(11.48 13.078)"/><rect class="a" width="1.968" height="0.656" transform="translate(8.856 13.078)"/><path class="a" d="M19.347,7.3,12.857.806a.98.98,0,0,0-.7-.29h0a.97.97,0,0,0-.692.29L4.581,7.69H.984A.984.984,0,0,0,0,8.674v9.184a.984.984,0,0,0,.984.984h4.86l.979.98a.98.98,0,0,0,.7.29h0a.971.971,0,0,0,.692-.29l.981-.98h7.533a.984.984,0,0,0,.984-.984V10.325l1.634-1.634a.979.979,0,0,0,0-1.394ZM15.175,4.052,11.537,7.69H8.752l5.03-5.03ZM11.93,1.269a.323.323,0,0,1,.457-.005l.005.005.926.927L7.824,7.69H5.508ZM7.75,19.359a.319.319,0,0,1-.23.1.328.328,0,0,1-.234-.1l-.515-.517h1.5Zm9.306-1.5a.328.328,0,0,1-.328.328H.984a.328.328,0,0,1-.328-.328V13.266h16.4Zm0-5.248H.656V10.642h16.4Zm0-2.624H.656V8.674a.328.328,0,0,1,.328-.328H16.728a.328.328,0,0,1,.328.328Zm1.828-1.76h0L17.712,9.4V8.674a.984.984,0,0,0-.984-.984H12.464l3.174-3.174,3.245,3.245a.328.328,0,0,1,.1.235A.322.322,0,0,1,18.883,8.225Z" transform="translate(0 -0.516)"/><path class="a" d="M25.966,361.795a1.309,1.309,0,0,0,.134-.134,1.3,1.3,0,0,0,1.727.222A1.334,1.334,0,0,0,28.4,360.8a1.312,1.312,0,0,0-1.312-1.312.991.991,0,0,0-.194.016l-.009,0h-.01a1.3,1.3,0,0,0-.772.436,1.312,1.312,0,1,0-.134,1.851ZM27,360.153a.4.4,0,0,1,.083-.007.656.656,0,0,1,.656.656.643.643,0,0,1-.129.385c-.012.016-.021.033-.034.05l-.008.007a.652.652,0,1,1-.567-1.09Zm-1.885-.007a.656.656,0,1,1-.656.656A.656.656,0,0,1,25.116,360.146Z" transform="translate(-22.82 -344.772)"/></g></g></svg>