<svg xmlns="http://www.w3.org/2000/svg" xmlns:xlink="http://www.w3.org/1999/xlink" width="24.514" height="24.514" viewBox="0 0 24.514 24.514"><defs><style>.a{fill:#fff;stroke:#9b235d;}.b{clip-path:url(#a);}.c{fill:#9b235d;}</style><clipPath id="a"><rect class="a" width="24.514" height="24.514" transform="translate(359.144 59.857)"/></clipPath></defs><g class="b" transform="translate(-359.144 -59.857)"><g transform="translate(359.144 63.617)"><g transform="translate(15.424 10.815)"><path class="c" d="M50.031,44.355a3.09,3.09,0,1,0,3.09,3.09A3.093,3.093,0,0,0,50.031,44.355Zm0,4.635a1.545,1.545,0,1,1,1.545-1.545A1.547,1.547,0,0,1,50.031,48.99Z" transform="translate(-46.941 -44.355)"/></g><g transform="translate(4.867 10.815)"><path class="c" d="M17.9,44.355a3.09,3.09,0,1,0,3.09,3.09A3.094,3.094,0,0,0,17.9,44.355Zm0,4.635a1.545,1.545,0,1,1,1.545-1.545A1.547,1.547,0,0,1,17.9,48.99Z" transform="translate(-14.811 -44.355)"/></g><g transform="translate(15.836 1.545)"><path class="c" d="M52.954,16.569a.773.773,0,0,0-.69-.425H48.2v1.545h3.592l2.1,4.184,1.381-.694Z" transform="translate(-48.195 -16.143)"/></g><g transform="translate(10.352 13.158)"><rect class="c" width="5.845" height="1.545"/></g><g transform="translate(2.189 13.158)"><path class="c" d="M10.112,51.487H7.434a.772.772,0,1,0,0,1.545h2.678a.772.772,0,1,0,0-1.545Z" transform="translate(-6.661 -51.487)"/></g><g transform="translate(2.189 0)"><path class="c" d="M28.824,19.877,27.3,17.92a.771.771,0,0,0-.61-.3H21.081V12.214a.772.772,0,0,0-.772-.772H7.434a.772.772,0,1,0,0,1.545h12.1v5.408a.772.772,0,0,0,.772.772h6.008l1.125,1.449V24.6H25.3a.772.772,0,0,0,0,1.545h2.91a.772.772,0,0,0,.773-.772V20.351A.774.774,0,0,0,28.824,19.877Z" transform="translate(-6.661 -11.441)"/></g><g transform="translate(1.262 9.244)"><path class="c" d="M8.166,39.575H4.612a.772.772,0,0,0,0,1.545H8.166a.772.772,0,0,0,0-1.545Z" transform="translate(-3.84 -39.575)"/></g><g transform="translate(0 6.206)"><path class="c" d="M7.365,30.328H.772a.773.773,0,0,0,0,1.545H7.365a.773.773,0,0,0,0-1.545Z" transform="translate(0 -30.328)"/></g><g transform="translate(1.262 3.167)"><path class="c" d="M11.2,21.081H4.612a.772.772,0,1,0,0,1.545H11.2a.772.772,0,1,0,0-1.545Z" transform="translate(-3.84 -21.081)"/></g></g></g></svg>