<svg xmlns="http://www.w3.org/2000/svg" width="12.654" height="11.258" viewBox="0 0 12.654 11.258"><defs><style>.a{fill:#9b235d;}</style></defs><path class="a" d="M6.327,11.258a.742.742,0,0,1-.489-.184c-.511-.447-1-.867-1.439-1.238l0,0A26.759,26.759,0,0,1,1.255,6.886,4.71,4.71,0,0,1,0,3.8,3.955,3.955,0,0,1,1,1.1,3.4,3.4,0,0,1,3.535,0,3.183,3.183,0,0,1,5.523.686a4.068,4.068,0,0,1,.8.839,4.068,4.068,0,0,1,.8-.839A3.183,3.183,0,0,1,9.119,0,3.4,3.4,0,0,1,11.65,1.1a3.955,3.955,0,0,1,1,2.7A4.709,4.709,0,0,1,11.4,6.886,26.756,26.756,0,0,1,8.258,9.834c-.436.371-.929.792-1.442,1.24a.743.743,0,0,1-.489.184ZM3.535.741A2.67,2.67,0,0,0,1.549,1.6,3.217,3.217,0,0,0,.741,3.8a3.963,3.963,0,0,0,1.085,2.61A26.333,26.333,0,0,0,4.877,9.27l0,0c.436.372.931.794,1.446,1.244.518-.451,1.014-.874,1.451-1.246a26.34,26.34,0,0,0,3.051-2.857A3.963,3.963,0,0,0,11.913,3.8a3.217,3.217,0,0,0-.808-2.2A2.669,2.669,0,0,0,9.119.741a2.458,2.458,0,0,0-1.535.531,3.6,3.6,0,0,0-.855.99.468.468,0,0,1-.8,0,3.594,3.594,0,0,0-.855-.99A2.458,2.458,0,0,0,3.535.741Zm0,0" transform="translate(0 0)"/></svg>