<svg xmlns="http://www.w3.org/2000/svg" width="18.063" height="16.07" viewBox="0 0 18.063 16.07"><defs><style>.a{fill:#434343;}</style></defs><path class="a" d="M9.032,16.071a1.059,1.059,0,0,1-.7-.262C7.6,15.17,6.9,14.57,6.279,14.042l0,0A38.2,38.2,0,0,1,1.792,9.829,6.723,6.723,0,0,1,0,5.429,5.646,5.646,0,0,1,1.433,1.573,4.857,4.857,0,0,1,5.046,0,4.543,4.543,0,0,1,7.884.98a5.807,5.807,0,0,1,1.147,1.2A5.807,5.807,0,0,1,10.179.98,4.543,4.543,0,0,1,13.017,0,4.857,4.857,0,0,1,16.63,1.573a5.646,5.646,0,0,1,1.433,3.856,6.722,6.722,0,0,1-1.791,4.4,38.194,38.194,0,0,1-4.484,4.209c-.622.53-1.326,1.13-2.058,1.77a1.06,1.06,0,0,1-.7.262ZM5.046,1.058A3.811,3.811,0,0,0,2.211,2.29,4.593,4.593,0,0,0,1.058,5.429,5.657,5.657,0,0,0,2.606,9.154a37.59,37.59,0,0,0,4.356,4.079l0,0c.623.531,1.329,1.133,2.064,1.776.739-.644,1.447-1.247,2.071-1.779a37.6,37.6,0,0,0,4.356-4.079,5.657,5.657,0,0,0,1.548-3.726A4.593,4.593,0,0,0,15.853,2.29a3.811,3.811,0,0,0-2.835-1.232,3.509,3.509,0,0,0-2.191.759A5.134,5.134,0,0,0,9.605,3.23a.668.668,0,0,1-1.147,0A5.13,5.13,0,0,0,7.237,1.817a3.509,3.509,0,0,0-2.191-.759Zm0,0" transform="translate(0 0)"/></svg>