<svg xmlns="http://www.w3.org/2000/svg" xmlns:xlink="http://www.w3.org/1999/xlink" width="74.605" height="74.605" viewBox="0 0 74.605 74.605"><defs><style>.a{fill:#fff;stroke:#707070;}.b{clip-path:url(#a);}.c{fill:#9b235d;}</style><clipPath id="a"><rect class="a" width="74.605" height="74.605" transform="translate(359.144 59.857)"/></clipPath></defs><g class="b" transform="translate(-359.144 -59.857)"><g transform="translate(358.401 59.114)"><path class="c" d="M33.083,18.347,32.221,23.3a.892.892,0,0,0,1.291.943l4.453-2.327,4.442,2.349a.892.892,0,0,0,1.3-.936l-.837-4.955,3.607-3.5a.892.892,0,0,0-.49-1.522l-4.97-.735L38.8,8.1a.892.892,0,0,0-.8-.5h0a.892.892,0,0,0-.8.5l-2.235,4.5-4.975.711a.892.892,0,0,0-.5,1.52Zm2.6-4.047a.892.892,0,0,0,.673-.486l1.64-3.3,1.624,3.31a.892.892,0,0,0,.67.489l3.647.539-2.646,2.568a.892.892,0,0,0-.258.789l.615,3.635-3.259-1.724a.892.892,0,0,0-.83,0l-3.267,1.708.632-3.632a.892.892,0,0,0-.255-.79l-2.634-2.58Z"/><path class="c" d="M56.25,21.616l-.757,4.349a.892.892,0,0,0,1.291.943L60.7,24.863l3.9,2.064a.892.892,0,0,0,1.3-.936l-.736-4.353,3.168-3.074a.892.892,0,0,0-.49-1.522L63.471,16.4l-1.944-3.964a.892.892,0,0,0-.8-.5h0a.892.892,0,0,0-.8.5l-1.963,3.953-4.37.624a.892.892,0,0,0-.5,1.52Zm2.43-3.534a.892.892,0,0,0,.673-.486l1.368-2.755L62.076,17.6a.892.892,0,0,0,.67.489l3.043.45-2.208,2.142a.892.892,0,0,0-.258.789l.513,3.034-2.72-1.438a.891.891,0,0,0-.83,0L57.56,24.491l.527-3.032a.892.892,0,0,0-.255-.79l-2.2-2.152Z"/><path class="c" d="M10.792,21.616l-.757,4.349a.892.892,0,0,0,1.292.943l3.912-2.045,3.9,2.064a.892.892,0,0,0,1.3-.936L19.7,21.638l3.168-3.074a.892.892,0,0,0-.49-1.522L18.012,16.4l-1.944-3.963a.892.892,0,0,0-.8-.5h0a.892.892,0,0,0-.8.5l-1.963,3.953-4.37.624a.892.892,0,0,0-.5,1.52Zm2.431-3.534A.892.892,0,0,0,13.9,17.6l1.368-2.755L16.619,17.6a.892.892,0,0,0,.67.489l3.043.45-2.208,2.142a.892.892,0,0,0-.258.789l.513,3.034-2.72-1.438a.891.891,0,0,0-.83,0L12.1,24.491l.527-3.032a.892.892,0,0,0-.254-.79l-2.2-2.152Z"/><path class="c" d="M38.045,27.813a7.158,7.158,0,0,0-7.15,7.15v4.172a7.15,7.15,0,1,0,14.3,0V34.963a7.158,7.158,0,0,0-7.15-7.15Zm5.366,11.322a5.366,5.366,0,1,1-10.733,0V34.963a5.366,5.366,0,0,1,10.733,0Z"/><path class="c" d="M60.234,31.348a6.588,6.588,0,0,0-6.581,6.581v3.793a6.581,6.581,0,1,0,13.162,0V37.929A6.588,6.588,0,0,0,60.234,31.348Zm4.8,10.373a4.8,4.8,0,1,1-9.595,0V37.929a4.8,4.8,0,1,1,9.595,0Z"/><path class="c" d="M67.819,49.635h-2.4a.811.811,0,0,1-.81-.81.892.892,0,0,0-1.731-.3l-.954,2.657a1.785,1.785,0,0,1-3.369-.022l-.912-2.645a.892.892,0,0,0-1.474-.34l-.022.021a.892.892,0,0,0-.261.63.811.811,0,0,1-.81.81H52.648a7.594,7.594,0,0,0-1.149.087,8.152,8.152,0,0,0-5.109-1.794H43.752a.981.981,0,0,1-.981-.981.892.892,0,0,0-1.731-.3l-1.048,2.923a2.053,2.053,0,0,1-3.874-.025l-1-2.911a.892.892,0,0,0-1.474-.339l-.024.024a.892.892,0,0,0-.26.63.981.981,0,0,1-.981.981H29.7a8.152,8.152,0,0,0-5.109,1.8,7.588,7.588,0,0,0-1.149-.088h-2.4a.811.811,0,0,1-.81-.81.892.892,0,0,0-1.731-.3l-.953,2.656a1.786,1.786,0,0,1-3.369-.022l-.912-2.645a.892.892,0,0,0-1.474-.34l-.021.021a.892.892,0,0,0-.261.63.811.811,0,0,1-.81.81H8.272A7.538,7.538,0,0,0,.743,57.164v10.43a.892.892,0,0,0,.892.892H74.456a.892.892,0,0,0,.892-.892V57.164a7.538,7.538,0,0,0-7.529-7.529Zm-46.31,6.486V66.7H2.526V57.164a5.752,5.752,0,0,1,5.746-5.746H10.7a2.579,2.579,0,0,0,1.513-.488l.279.81a3.569,3.569,0,0,0,6.733.043l.305-.851a2.58,2.58,0,0,0,1.427.485H23A8.145,8.145,0,0,0,21.509,56.121ZM52.8,66.7H23.292V56.121A6.417,6.417,0,0,1,29.7,49.712h2.675a2.751,2.751,0,0,0,1.709-.593l.347,1.007a3.837,3.837,0,0,0,7.238.046l.377-1.05a2.749,2.749,0,0,0,1.617.589h2.725A6.417,6.417,0,0,1,52.8,56.121Zm20.766,0H54.582V56.121a8.145,8.145,0,0,0-1.49-4.7H55.08a2.58,2.58,0,0,0,1.513-.488l.279.81a3.569,3.569,0,0,0,6.733.043l.305-.851a2.58,2.58,0,0,0,1.427.485h2.481a5.752,5.752,0,0,1,5.746,5.745Z"/><path class="c" d="M9.277,37.929v3.793a6.581,6.581,0,1,0,13.162,0V37.929a6.581,6.581,0,0,0-13.162,0Zm11.378,0v3.793a4.8,4.8,0,1,1-9.595,0V37.929a4.8,4.8,0,0,1,9.595,0Z"/></g></g></svg>