<svg xmlns="http://www.w3.org/2000/svg" xmlns:xlink="http://www.w3.org/1999/xlink" width="74.605" height="74.605" viewBox="0 0 74.605 74.605"><defs><style>.a{fill:#fff;stroke:#9b235d;}.b{clip-path:url(#a);}.c{fill:#9b235d;}</style><clipPath id="a"><rect class="a" width="74.605" height="74.605" transform="translate(359.144 59.857)"/></clipPath></defs><g class="b" transform="translate(-359.144 -59.857)"><g transform="translate(359.144 59.857)"><path class="c" d="M56.345,44.355a9.4,9.4,0,1,0,9.4,9.4A9.415,9.415,0,0,0,56.345,44.355Zm0,14.106a4.7,4.7,0,1,1,4.7-4.7A4.707,4.707,0,0,1,56.345,58.461Z"/><path class="c" d="M24.215,44.355a9.4,9.4,0,1,0,9.4,9.4A9.415,9.415,0,0,0,24.215,44.355Zm0,14.106a4.7,4.7,0,1,1,4.7-4.7A4.707,4.707,0,0,1,24.215,58.461Z"/><path class="c" d="M62.678,17.438a2.352,2.352,0,0,0-2.1-1.295H48.2v4.7H59.127l6.4,12.733,4.2-2.113Z"/><rect class="c" width="17.789" height="4.702" transform="translate(31.503 51.487)"/><path class="c" d="M17.162,51.487H9.012a2.351,2.351,0,0,0,0,4.7h8.15a2.351,2.351,0,1,0,0-4.7Z"/><path class="c" d="M74.111,37.114l-4.624-5.956a2.348,2.348,0,0,0-1.857-.909H50.546V13.792A2.351,2.351,0,0,0,48.2,11.441H9.012a2.351,2.351,0,0,0,0,4.7H45.844V32.6A2.351,2.351,0,0,0,48.2,34.951H66.479l3.424,4.41V51.486H63.4a2.351,2.351,0,0,0,0,4.7h8.855A2.351,2.351,0,0,0,74.6,53.837V38.556A2.354,2.354,0,0,0,74.111,37.114Z"/><path class="c" d="M17.006,39.575H6.191a2.351,2.351,0,0,0,0,4.7H17.005a2.351,2.351,0,0,0,0-4.7Z"/><path class="c" d="M22.413,30.328H2.351a2.351,2.351,0,0,0,0,4.7H22.413a2.351,2.351,0,0,0,0-4.7Z"/><path class="c" d="M26.253,21.081H6.191a2.351,2.351,0,0,0,0,4.7H26.253a2.351,2.351,0,0,0,0-4.7Z"/></g></g></svg>