<svg xmlns="http://www.w3.org/2000/svg" xmlns:xlink="http://www.w3.org/1999/xlink" width="74.605" height="74.605" viewBox="0 0 74.605 74.605"><defs><style>.a{fill:#fff;stroke:#707070;}.b{clip-path:url(#a);}.c{fill:#9b235d;}</style><clipPath id="a"><rect class="a" width="74.605" height="74.605" transform="translate(359.144 59.857)"/></clipPath></defs><g class="b" transform="translate(-359.144 -59.857)"><g transform="translate(359.109 59.857)"><path class="c" d="M.2,6.838l4.972,8.7a1.242,1.242,0,0,0,.777.589l4.638,1.16L26.495,33.195l1.758-1.757L12.1,15.281a1.24,1.24,0,0,0-.577-.327L7.062,13.836,2.829,6.424,6.458,2.8l7.414,4.237,1.119,4.457a1.239,1.239,0,0,0,.327.578L31.475,28.224l1.757-1.758L17.324,10.558l-1.16-4.636a1.245,1.245,0,0,0-.589-.778L6.875.173a1.243,1.243,0,0,0-1.491.2L.413,5.344A1.243,1.243,0,0,0,.2,6.838Zm0,0"/><path class="c" d="M51.872,24.495,24.53,51.838,22.772,50.08,50.115,22.737Zm0,0"/><path class="c" d="M19.744,52.8a1.242,1.242,0,0,0-1.065-.6H11.221a1.242,1.242,0,0,0-1.065.6L6.428,59.019a1.243,1.243,0,0,0,0,1.28l3.729,6.214a1.243,1.243,0,0,0,1.065.6h7.457a1.244,1.244,0,0,0,1.065-.6L23.472,60.3a1.243,1.243,0,0,0,0-1.28ZM17.975,64.63h-6.05L8.942,59.659l2.983-4.972h6.05l2.983,4.972Zm0,0"/><path class="c" d="M59.692,29.831A14.863,14.863,0,0,0,74.149,11.312a1.242,1.242,0,0,0-2.084-.579l-7.737,7.731L58.19,16.419l-2.047-6.137L63.88,2.544A1.243,1.243,0,0,0,63.3.459,14.868,14.868,0,0,0,44.778,14.916a14.588,14.588,0,0,0,.3,2.912L17.862,45.047a14.662,14.662,0,0,0-2.912-.3A14.914,14.914,0,1,0,29.864,59.659a14.625,14.625,0,0,0-.3-2.912l6.516-6.516,2.85,2.85a1.243,1.243,0,0,0,1.758,0l.621-.622a1.394,1.394,0,0,1,1.974,1.969l0,0-.621.621a1.243,1.243,0,0,0,0,1.757L57.482,71.634a10.031,10.031,0,1,0,14.25-14.121l-.064-.064L56.842,42.623a1.243,1.243,0,0,0-1.757,0l-.621.621a1.394,1.394,0,0,1-1.974-1.968l0,0,.622-.622a1.243,1.243,0,0,0,0-1.757l-2.85-2.85,6.516-6.516a14.624,14.624,0,0,0,2.912.3Zm4.883,42.257a7.552,7.552,0,0,1-2.643-.482L71.639,61.9a7.537,7.537,0,0,1-7.063,10.189ZM50.5,39.786a3.879,3.879,0,0,0,5.468,5.461l13.948,13.96c.151.152.293.312.43.474L59.715,70.307c-.163-.137-.323-.278-.475-.43L45.282,55.918a3.879,3.879,0,0,0-5.469-5.461l-1.988-1.988L48.507,37.8Zm5.019-12.5L27.32,55.474a1.245,1.245,0,0,0-.328,1.181,12.511,12.511,0,1,1-9.038-9.038,1.254,1.254,0,0,0,1.181-.328L47.323,19.1a1.242,1.242,0,0,0,.327-1.181A12.368,12.368,0,0,1,60.4,2.508L53.842,9.067a1.242,1.242,0,0,0-.3,1.271L56.027,17.8a1.244,1.244,0,0,0,.787.785l7.457,2.486a1.243,1.243,0,0,0,1.271-.3L72.1,14.211c.015.237.022.472.022.706A12.364,12.364,0,0,1,56.689,26.959a1.244,1.244,0,0,0-1.181.327h.007Zm0,0"/><path class="c" d="M64.3,62.508l-1.758,1.758L50.115,51.838l1.757-1.758Zm0,0"/></g></g></svg>