<svg xmlns="http://www.w3.org/2000/svg" xmlns:xlink="http://www.w3.org/1999/xlink" width="27" height="25" viewBox="0 0 27 25"><defs><style>.a{fill:#fff;stroke:#9b235d;}.b{clip-path:url(#a);}.c{fill:#9b235d;}</style><clipPath id="a"><rect class="a" width="27" height="25" transform="translate(1431 5759.129)"/></clipPath></defs><g class="b" transform="translate(-1431 -5759.129)"><g transform="translate(1431 5761.346)"><g transform="translate(0 0)"><path class="c" d="M24.627,3.693H2.373A2.377,2.377,0,0,0,0,6.066v15.82A2.377,2.377,0,0,0,2.373,24.26H24.627A2.377,2.377,0,0,0,27,21.887V6.066A2.377,2.377,0,0,0,24.627,3.693ZM24.3,5.275,13.55,16.024,2.708,5.275ZM1.582,21.559V6.386L9.2,13.94ZM2.7,22.678l7.624-7.624L13,17.7a.791.791,0,0,0,1.116,0l2.6-2.6L24.3,22.678Zm22.717-1.119-7.583-7.583,7.583-7.583Z" transform="translate(0 -3.693)"/></g></g></g></svg>