<svg xmlns="http://www.w3.org/2000/svg" xmlns:xlink="http://www.w3.org/1999/xlink" width="74.605" height="74.605" viewBox="0 0 74.605 74.605"><defs><style>.a{fill:#fff;stroke:#707070;}.b{clip-path:url(#a);}.c{fill:#9b235d;}</style><clipPath id="a"><rect class="a" width="74.605" height="74.605" transform="translate(359.144 59.857)"/></clipPath></defs><g class="b" transform="translate(-359.144 -59.857)"><g transform="translate(359.144 59.857)"><path class="c" d="M60.545,64.978,57.759,56.62A8.423,8.423,0,0,0,51.275,51l-8.042-1.463v-.623a12.11,12.11,0,0,0,3.587-3.185h2.429a3.614,3.614,0,0,0,3.61-3.61V27.676a15.643,15.643,0,0,0-31.286,0V36.1a4.821,4.821,0,0,0,3.837,4.713,12.056,12.056,0,0,0,5.789,8.1v.623L23.157,51a8.422,8.422,0,0,0-6.483,5.623l-.481,1.445-4.1-4.1a1.206,1.206,0,0,1,0-1.7l4.753-4.752L7.926,38.591,2.554,43.963a8.423,8.423,0,0,0,0,11.912L18.817,72.137a8.419,8.419,0,0,0,11.874.036l5.861-5.37-1.828-1.824ZM50.453,42.116a1.2,1.2,0,0,1-1.2,1.2H48.237a11.952,11.952,0,0,0,.785-2.506,4.767,4.767,0,0,0,1.431-.569Zm-1.2-3.944V34.027a2.386,2.386,0,0,1,0,4.144Zm-24.066,0a2.386,2.386,0,0,1,0-4.144Zm0-8.089v1.374a4.773,4.773,0,0,0-1.2.5V27.676a13.236,13.236,0,1,1,26.473,0v4.279a4.729,4.729,0,0,0-1.2-.5V30.083h-1.2a13.239,13.239,0,0,1-9.421-3.9l-1.409-1.409L35.807,26.18a13.239,13.239,0,0,1-9.421,3.9Zm2.407,8.423V32.443a15.6,15.6,0,0,0,9.626-4.277,15.594,15.594,0,0,0,9.626,4.277v6.062a9.554,9.554,0,0,1-1.3,4.813H37.216v2.407h6.346a9.611,9.611,0,0,1-15.973-7.22ZM40.826,49.984v.057l-3.61,3.61-3.61-3.61v-.057a12.023,12.023,0,0,0,7.22,0Zm-21.871,7.4a6.019,6.019,0,0,1,4.632-4.018L32,51.835l5.219,5.219,5.218-5.218,8.41,1.528a6.016,6.016,0,0,1,4.632,4.018l1.732,5.19H32.318l-4.687-4.687L22.423,62.6a1.229,1.229,0,0,1-1.7,0l-2.628-2.628ZM7.924,41.994l5.518,5.518-1.307,1.307L6.618,43.3Zm21.1,28.444a6.018,6.018,0,0,1-8.509,0L4.253,54.174a6.018,6.018,0,0,1,0-8.509L4.915,45l5.518,5.518-.043.043a3.616,3.616,0,0,0,0,5.106L19.019,64.3a3.591,3.591,0,0,0,2.553,1.058,3.543,3.543,0,0,0,2.509-1.016l.09-.081L29.715,69.8Zm2.467-2.262-5.532-5.532,1.59-1.437,5.522,5.522Z"/><path class="c" d="M70.909,0H54.063a3.614,3.614,0,0,0-3.61,3.61v9.626a3.614,3.614,0,0,0,3.61,3.61h3.214L56.032,24.1l11.612-7.257h3.265a3.614,3.614,0,0,0,3.61-3.61V3.61A3.614,3.614,0,0,0,70.909,0Zm1.2,13.236a1.205,1.205,0,0,1-1.2,1.2H66.954l-7.642,4.776.819-4.776H54.063a1.205,1.205,0,0,1-1.2-1.2V3.61a1.205,1.205,0,0,1,1.2-1.2H70.909a1.205,1.205,0,0,1,1.2,1.2Z"/><rect class="c" width="14.44" height="2.407" transform="translate(55.266 4.813)"/><rect class="c" width="9.626" height="2.407" transform="translate(55.266 9.626)"/><rect class="c" width="2.407" height="2.407" transform="translate(67.299 9.626)"/><path class="c" d="M37.216,3.61A33.671,33.671,0,0,0,4.43,29.655l-2.28-3.8L.086,27.092l4.23,7.048,7.048-4.23-1.238-2.064L6.864,29.8A31.294,31.294,0,0,1,46.487,7.412l.712-2.3A33.671,33.671,0,0,0,37.216,3.61Z"/><path class="c" d="M73.934,26.644l-7.048-4.23-4.228,7.049L64.721,30.7l2.106-3.51A31.313,31.313,0,0,1,61.524,57l1.869,1.516a33.7,33.7,0,0,0,5.766-31.931L72.7,28.707Z"/></g></g></svg>