<svg xmlns="http://www.w3.org/2000/svg" xmlns:xlink="http://www.w3.org/1999/xlink" width="15" height="15" viewBox="0 0 15 15"><defs><style>.a{fill:#fff;stroke:#5b5b5b;}.b{clip-path:url(#a);}.c{fill:#5b5b5b;}</style><clipPath id="a"><rect class="a" width="15" height="15" transform="translate(1430.852 5758.336)"/></clipPath></defs><g class="b" transform="translate(-1430.852 -5758.336)"><g transform="translate(1431.031 5760.26)"><g transform="translate(0 0)"><path class="c" d="M13.354,3.693H1.287A1.289,1.289,0,0,0,0,4.98v8.579a1.289,1.289,0,0,0,1.287,1.287H13.354a1.289,1.289,0,0,0,1.287-1.287V4.98A1.289,1.289,0,0,0,13.354,3.693Zm-.178.858L7.348,10.38,1.469,4.551ZM.858,13.381V5.154l4.131,4.1Zm.607.607L5.6,9.854,7.047,11.29a.429.429,0,0,0,.605,0L9.065,9.876l4.112,4.112Zm12.318-.607L9.671,9.269l4.112-4.112Z" transform="translate(0 -3.693)"/></g></g></g></svg>