<svg xmlns="http://www.w3.org/2000/svg" width="26.378" height="26.434" viewBox="0 0 26.378 26.434"><defs><style>.a{fill:#9b235d;}</style></defs><path class="a" d="M26.226,19.4l-3.689-3.689a2.454,2.454,0,0,0-4.084.922,2.51,2.51,0,0,1-2.9,1.581c-2.635-.659-6.192-4.084-6.851-6.851a2.388,2.388,0,0,1,1.581-2.9,2.454,2.454,0,0,0,.922-4.084L7.518.692a2.631,2.631,0,0,0-3.557,0l-2.5,2.5c-2.5,2.635.263,9.618,6.456,15.81S21.088,28.1,23.723,25.46l2.5-2.5A2.631,2.631,0,0,0,26.226,19.4Z" transform="translate(-0.539 0)"/></svg>