<svg xmlns="http://www.w3.org/2000/svg" width="60.267" height="71.92" viewBox="0 0 60.267 71.92"><defs><style>.a{fill:#9b235d;}</style></defs><path class="a" d="M77.3,18.518c-.037-1.942-.072-3.776-.072-5.551a2.514,2.514,0,0,0-2.51-2.517c-10.736,0-18.911-3.094-25.725-9.737a2.5,2.5,0,0,0-3.5,0C38.681,7.356,30.507,10.45,19.772,10.45a2.514,2.514,0,0,0-2.51,2.517c0,1.775-.035,3.61-.072,5.552-.344,18.07-.815,42.818,29.232,53.261a2.5,2.5,0,0,0,1.644,0C78.116,61.337,77.645,36.589,77.3,18.518ZM47.244,66.731c-25.77-9.387-25.38-29.951-25.034-48.116.021-1.09.041-2.147.055-3.183,10.055-.426,18.1-3.481,24.98-9.494,6.884,6.013,14.926,9.069,24.982,9.494.014,1.035.034,2.091.055,3.181C72.627,36.78,73.016,57.344,47.244,66.731Z" transform="translate(-17.112 0)"/><path class="a" d="M91.317,79.663l-12.81,12.81L73.04,87.006a2.654,2.654,0,0,0-3.753,3.754L76.63,98.1a2.655,2.655,0,0,0,3.753,0L95.07,83.417a2.654,2.654,0,1,0-3.753-3.754Z" transform="translate(-52.045 -52.923)"/></svg>