<svg xmlns="http://www.w3.org/2000/svg" width="17.79" height="21.23" viewBox="0 0 17.79 21.23"><defs><style>.a{fill:#9b235d;}</style></defs><path class="a" d="M34.879,5.467c-.011-.573-.021-1.115-.021-1.639a.742.742,0,0,0-.741-.743A10.2,10.2,0,0,1,26.523.211a.739.739,0,0,0-1.033,0A10.2,10.2,0,0,1,17.9,3.085a.742.742,0,0,0-.741.743c0,.524-.01,1.066-.021,1.639-.1,5.334-.241,12.639,8.629,15.722a.738.738,0,0,0,.485,0C35.12,18.107,34.981,10.8,34.879,5.467ZM26.007,19.7c-7.607-2.771-7.492-8.841-7.39-14.2.006-.322.012-.634.016-.939a11.41,11.41,0,0,0,7.374-2.8,11.412,11.412,0,0,0,7.375,2.8c0,.306.01.617.016.939C33.5,10.857,33.614,16.928,26.007,19.7Z" transform="translate(-17.112 0)"/><path class="a" d="M75.242,79.115,71.46,82.9l-1.614-1.614a.783.783,0,0,0-1.108,1.108l2.168,2.168a.784.784,0,0,0,1.108,0l4.335-4.335a.783.783,0,1,0-1.108-1.108Z" transform="translate(-63.649 -71.222)"/></svg>