<svg xmlns="http://www.w3.org/2000/svg" width="10.303" height="12.681" viewBox="0 0 10.303 12.681"><defs><style>.a{fill:#5b5b5b;}</style></defs><g transform="translate(-1.299 -20.49) rotate(-90)"><g transform="translate(-33.171 1.299)"><path class="a" d="M12.681,1.22a5.42,5.42,0,0,1-1.5.411A2.585,2.585,0,0,0,12.327.193a5.2,5.2,0,0,1-1.649.629A2.6,2.6,0,0,0,6.181,2.6a2.677,2.677,0,0,0,.06.593A7.359,7.359,0,0,1,.883.474a2.6,2.6,0,0,0,.8,3.475,2.567,2.567,0,0,1-1.175-.32v.029A2.612,2.612,0,0,0,2.59,6.211a2.6,2.6,0,0,1-.682.086,2.3,2.3,0,0,1-.492-.044A2.625,2.625,0,0,0,3.846,8.064,5.224,5.224,0,0,1,.622,9.172,4.869,4.869,0,0,1,0,9.137,7.319,7.319,0,0,0,3.988,10.3a7.348,7.348,0,0,0,7.4-7.4c0-.115,0-.226-.01-.336A5.186,5.186,0,0,0,12.681,1.22Z"/></g></g></svg>