<svg xmlns="http://www.w3.org/2000/svg" width="21.74" height="26.757" viewBox="0 0 21.74 26.757"><defs><style>.a{fill:#9b235d;}</style></defs><g transform="translate(0 26.757) rotate(-90)"><g transform="translate(0 0)"><path class="a" d="M26.757,2.574A11.436,11.436,0,0,1,23.6,3.44,5.454,5.454,0,0,0,26.009.408a10.962,10.962,0,0,1-3.478,1.328,5.485,5.485,0,0,0-9.489,3.751,5.648,5.648,0,0,0,.127,1.251A15.526,15.526,0,0,1,1.863,1,5.487,5.487,0,0,0,3.549,8.331,5.417,5.417,0,0,1,1.07,7.656v.06a5.511,5.511,0,0,0,4.395,5.39,5.475,5.475,0,0,1-1.438.181,4.849,4.849,0,0,1-1.038-.094,5.538,5.538,0,0,0,5.126,3.821,11.022,11.022,0,0,1-6.8,2.34A10.273,10.273,0,0,1,0,19.278,15.443,15.443,0,0,0,8.415,21.74,15.5,15.5,0,0,0,24.027,6.131c0-.242-.008-.477-.02-.709A10.943,10.943,0,0,0,26.757,2.574Z"/></g></g></svg>